<?xml version="1.0" encoding="utf-8"?>
<!-- Generator: Adobe Illustrator 26.0.0, SVG Export Plug-In . SVG Version: 6.00 Build 0)  -->
<svg version="1.1" id="Layer_1" xmlns="http://www.w3.org/2000/svg" xmlns:xlink="http://www.w3.org/1999/xlink" x="0px" y="0px"
	 viewBox="0 0 48 48" style="enable-background:new 0 0 48 48;" xml:space="preserve">
<style type="text/css">
	.st0{fill:none;stroke:#000000;stroke-width:4;stroke-linecap:round;stroke-linejoin:round;}
</style>
<path class="st0" d="M28.3,7.4L36,10c0.2,4.3,0.2,9,0,13.8c-0.2,6-0.8,11.6-1.5,16.7c-0.3,2-2,3.4-4,3.4h-13c-2,0-3.7-1.5-4-3.5
	c-0.7-5.1-1.2-10.6-1.4-16.4c-0.2-5-0.2-9.7-0.1-14.1c2.6-0.9,5.2-1.7,7.7-2.6"/>
<path class="st0" d="M12,10l-6,2c-0.9,2.9-1.9,7-2,11.9c-0.2,6,1,10.9,2,14.1c2.6,1.3,7.2,0,7.2,0"/>
<path class="st0" d="M34.8,38c0,0,4.5,1.3,7.2,0c1-3.2,2.2-8.1,2-14.1c-0.1-4.9-1.1-9-2-11.9l-6-2"/>
<polygon class="st0" points="18,4 30,4 24,16 "/>
<line class="st0" x1="24" y1="44" x2="24" y2="16"/>
</svg>
