<?xml version="1.0" encoding="utf-8"?>
<!-- Generator: Adobe Illustrator 26.0.0, SVG Export Plug-In . SVG Version: 6.00 Build 0)  -->
<svg version="1.1" id="Layer_1" xmlns="http://www.w3.org/2000/svg" xmlns:xlink="http://www.w3.org/1999/xlink" x="0px" y="0px"
	 viewBox="0 0 48 48" style="enable-background:new 0 0 48 48;" xml:space="preserve">
<style type="text/css">
	.st0{fill:none;stroke:#000000;stroke-width:4;stroke-linecap:round;stroke-linejoin:round;}
</style>
<rect x="11" y="36" class="st0" width="26" height="6"/>
<path class="st0" d="M37.2,18.8c-1.3-0.7-2-2.1-2-3.6V6l-5.6-2v11.4c0,3.3-2.3,6.2-5.5,6.2c-3.1,0.1-5.7-2.6-5.7-6V4l-5.6,2v9.3
	c0,1.5-0.8,2.8-2,3.5L5.5,22c-0.4,2.2-0.8,3.9,0,8c0.2,1.2,0.5,2.3,0.9,3.3C6.9,34.9,8.3,36,9.8,36h28.4c1.7,0,3-1.1,3.5-2.7
	c0.3-1,0.6-2.1,0.9-3.3c0.8-4.2,0.4-6,0-8.3L37.2,18.8z"/>
</svg>
