<?xml version="1.0" encoding="utf-8"?>
<!-- Generator: Adobe Illustrator 26.0.0, SVG Export Plug-In . SVG Version: 6.00 Build 0)  -->
<svg version="1.1" id="Layer_1" xmlns="http://www.w3.org/2000/svg" xmlns:xlink="http://www.w3.org/1999/xlink" x="0px" y="0px"
	 viewBox="0 0 48 48" style="enable-background:new 0 0 48 48;" xml:space="preserve">
<style type="text/css">
	.st0{fill:none;stroke:#000000;stroke-width:4;stroke-linecap:round;stroke-linejoin:round;}
</style>
<path class="st0" d="M29.9,4l5.9,2.8l-2,34c-1.2,0.9-4.8,3.2-10,3.2c-5.1,0-8.7-2.3-9.9-3.2c-0.7-11.3-1.3-22.7-2-34L18,4"/>
<path class="st0" d="M11.9,6.8c-1.5,2-3.1,4.6-4.4,7.9C5,20.8,4.6,29.5,4.9,35c0.1,2.1,1.8,3.8,4,3.8h0.2h4.7"/>
<path class="st0" d="M33.9,38.8h4.7h0.2c2.1,0,3.9-1.7,4-3.8c0.2-5.5-0.1-14.2-2.6-20.3c-1.3-3.2-2.9-5.8-4.4-7.9"/>
<path class="st0" d="M29.9,4C27.4,6.5,20.5,6.5,18,4"/>
<line class="st0" x1="12.7" y1="20.1" x2="35" y2="20"/>
<line class="st0" x1="13.2" y1="28" x2="34.5" y2="28"/>
</svg>
